# xmcd
#
# Track frame offsets:
#	150
#	16140
#	31079
#	49516
#	73555
#	91195
#	109936
#	140861
#	158982
#	182173
#	195316
#	213532
#	233434
#	256701
#
# Disc length: 3752 seconds
# Revision: 0
# Processed by: cddbd v1.5.2PL0 Copyright (c) Steve Scherf et al.
# Submitted via: dBpowerAMP V12.0
#
DISCID=b10ea60e
DTITLE=Jimmy Barnes - Hindsight
DYEAR=2014
DGENRE=Blues
TTITLE0=Lay Down Your Guns (w/ The Living End)
TTITLE1=Time Will Tell (w/ The Baby Animals)
TTITLE2=Good Times (w/ Keith Urban)
TTITLE3=Ride The Night Away (w/ Steven van Zandt)
TTITLE4=Stand Up (w/ Mahalia Barnes and The Soul Mates)
TTITLE5=I'd Die To Be With You Tonight (w/ Diesel)
TTITLE6=Stone Cold (w/ Tina Arena and Joe Bonamassa)
TTITLE7=Working Class Man (w/ Jonathan Cain and Ian Moss)
TTITLE8=Going Down Alone (w/ Neal Schon and Jonathan Cain)
TTITLE9=Love And Hate (w/ Shihad)
TTITLE10=No Second Prize
TTITLE11=I'd Rather Be Blind (w/ Jon Stevens)
TTITLE12=When Your Love Is Gone
TTITLE13=The Other Kind
EXTD=
EXTT0=
EXTT1=
EXTT2=
EXTT3=
EXTT4=
EXTT5=
EXTT6=
EXTT7=
EXTT8=
EXTT9=
EXTT10=
EXTT11=
EXTT12=
EXTT13=
PLAYORDER=
